<svg xmlns="http://www.w3.org/2000/svg" viewBox="0 0 8 8">
  <path d="M7.465 6.047a.19.19 0 0 1 .043.121.18.18 0 0 1-.043.117l-1.18 1.18a.18.18 0 0 1-.117.043.19.19 0 0 1-.121-.043L4 5.418 1.953 7.465a.19.19 0 0 1-.121.043.18.18 0 0 1-.117-.043l-1.18-1.18a.18.18 0 0 1-.043-.117.19.19 0 0 1 .043-.121L2.582 4 .535 1.953a.19.19 0 0 1-.043-.121.18.18 0 0 1 .043-.117l1.18-1.18a.18.18 0 0 1 .117-.043.19.19 0 0 1 .121.043L4 2.582 6.047.535a.19.19 0 0 1 .121-.043.18.18 0 0 1 .117.043l1.18 1.18a.18.18 0 0 1 .043.117.19.19 0 0 1-.043.121L5.418 4l2.047 2.047z" fill-rule="evenodd"/>
</svg>