<svg xmlns="http://www.w3.org/2000/svg" viewBox="0 0 20 20">
  <g>
    <path style=" stroke:none;fill-rule:nonzero;fill:inherit;fill-opacity:1;" d="M 16.207031 2.460938 C 16.207031 2.789062 16.144531 3.101562 16.015625 3.394531 C 15.886719 3.6875 15.71875 3.949219 15.507812 4.171875 C 15.296875 4.398438 15.042969 4.574219 14.75 4.703125 C 14.457031 4.832031 14.148438 4.894531 13.816406 4.894531 C 13.484375 4.894531 13.171875 4.832031 12.878906 4.703125 C 12.585938 4.574219 12.332031 4.398438 12.113281 4.171875 C 11.894531 3.949219 11.722656 3.6875 11.59375 3.394531 C 11.46875 3.101562 11.402344 2.789062 11.402344 2.460938 C 11.402344 2.128906 11.46875 1.8125 11.59375 1.511719 C 11.722656 1.210938 11.894531 0.949219 12.113281 0.722656 C 12.332031 0.496094 12.585938 0.320312 12.878906 0.191406 C 13.171875 0.0625 13.484375 0 13.816406 0 C 14.148438 0 14.457031 0.0625 14.75 0.191406 C 15.042969 0.320312 15.296875 0.496094 15.507812 0.722656 C 15.71875 0.949219 15.886719 1.210938 16.015625 1.511719 C 16.144531 1.8125 16.207031 2.128906 16.207031 2.460938 Z M 16.207031 9.878906 C 16.207031 10.226562 16.144531 10.542969 16.015625 10.835938 C 15.886719 11.132812 15.71875 11.386719 15.507812 11.605469 C 15.296875 11.824219 15.042969 11.996094 14.75 12.125 C 14.457031 12.25 14.148438 12.316406 13.816406 12.316406 C 13.484375 12.316406 13.171875 12.25 12.878906 12.125 C 12.585938 11.996094 12.332031 11.824219 12.113281 11.605469 C 11.894531 11.386719 11.722656 11.132812 11.59375 10.835938 C 11.46875 10.542969 11.402344 10.226562 11.402344 9.878906 C 11.402344 9.550781 11.46875 9.234375 11.59375 8.933594 C 11.722656 8.632812 11.894531 8.371094 12.113281 8.152344 C 12.332031 7.9375 12.585938 7.761719 12.878906 7.636719 C 13.171875 7.507812 13.484375 7.441406 13.816406 7.441406 C 14.148438 7.441406 14.457031 7.507812 14.75 7.636719 C 15.042969 7.761719 15.296875 7.9375 15.507812 8.152344 C 15.71875 8.371094 15.886719 8.632812 16.015625 8.933594 C 16.144531 9.234375 16.207031 9.550781 16.207031 9.878906 Z M 16.140625 17.300781 C 16.140625 17.632812 16.078125 17.941406 15.960938 18.226562 C 15.839844 18.511719 15.675781 18.761719 15.464844 18.972656 C 15.253906 19.179688 15.003906 19.347656 14.71875 19.46875 C 14.433594 19.585938 14.132812 19.648438 13.816406 19.648438 C 13.5 19.648438 13.199219 19.585938 12.914062 19.46875 C 12.628906 19.347656 12.378906 19.179688 12.167969 18.972656 C 11.957031 18.761719 11.792969 18.511719 11.671875 18.226562 C 11.550781 17.941406 11.492188 17.632812 11.492188 17.300781 C 11.492188 16.984375 11.550781 16.683594 11.671875 16.398438 C 11.792969 16.113281 11.957031 15.863281 12.167969 15.644531 C 12.378906 15.425781 12.628906 15.253906 12.914062 15.132812 C 13.199219 15.015625 13.5 14.953125 13.816406 14.953125 C 14.132812 14.953125 14.433594 15.015625 14.71875 15.132812 C 15.003906 15.253906 15.253906 15.425781 15.464844 15.644531 C 15.675781 15.863281 15.839844 16.113281 15.960938 16.398438 C 16.078125 16.683594 16.140625 16.984375 16.140625 17.300781 Z M 8.335938 2.460938 C 8.335938 2.789062 8.269531 3.101562 8.144531 3.394531 C 8.015625 3.6875 7.847656 3.949219 7.636719 4.171875 C 7.425781 4.398438 7.171875 4.574219 6.878906 4.703125 C 6.585938 4.832031 6.277344 4.894531 5.945312 4.894531 C 5.613281 4.894531 5.300781 4.832031 5.007812 4.703125 C 4.714844 4.574219 4.457031 4.398438 4.242188 4.171875 C 4.023438 3.949219 3.851562 3.6875 3.722656 3.394531 C 3.59375 3.101562 3.53125 2.789062 3.53125 2.460938 C 3.53125 2.128906 3.59375 1.8125 3.722656 1.511719 C 3.851562 1.210938 4.023438 0.949219 4.242188 0.722656 C 4.457031 0.496094 4.714844 0.320312 5.007812 0.191406 C 5.300781 0.0625 5.613281 0 5.945312 0 C 6.277344 0 6.585938 0.0625 6.878906 0.191406 C 7.171875 0.320312 7.425781 0.496094 7.636719 0.722656 C 7.847656 0.949219 8.015625 1.210938 8.144531 1.511719 C 8.269531 1.8125 8.335938 2.128906 8.335938 2.460938 Z M 8.335938 9.878906 C 8.335938 10.226562 8.269531 10.542969 8.144531 10.835938 C 8.015625 11.132812 7.847656 11.386719 7.636719 11.605469 C 7.425781 11.824219 7.171875 11.996094 6.878906 12.125 C 6.585938 12.25 6.277344 12.316406 5.945312 12.316406 C 5.613281 12.316406 5.300781 12.25 5.007812 12.125 C 4.714844 11.996094 4.457031 11.824219 4.242188 11.605469 C 4.023438 11.386719 3.851562 11.132812 3.722656 10.835938 C 3.59375 10.542969 3.53125 10.226562 3.53125 9.878906 C 3.53125 9.550781 3.59375 9.234375 3.722656 8.933594 C 3.851562 8.632812 4.023438 8.371094 4.242188 8.152344 C 4.457031 7.9375 4.714844 7.761719 5.007812 7.636719 C 5.300781 7.507812 5.613281 7.441406 5.945312 7.441406 C 6.277344 7.441406 6.585938 7.507812 6.878906 7.636719 C 7.171875 7.761719 7.425781 7.9375 7.636719 8.152344 C 7.847656 8.371094 8.015625 8.632812 8.144531 8.933594 C 8.269531 9.234375 8.335938 9.550781 8.335938 9.878906 Z M 8.335938 17.300781 C 8.335938 17.648438 8.269531 17.964844 8.144531 18.257812 C 8.015625 18.550781 7.847656 18.808594 7.636719 19.027344 C 7.425781 19.242188 7.171875 19.417969 6.878906 19.542969 C 6.585938 19.671875 6.277344 19.738281 5.945312 19.738281 C 5.613281 19.738281 5.300781 19.671875 5.007812 19.542969 C 4.714844 19.417969 4.457031 19.242188 4.242188 19.027344 C 4.023438 18.808594 3.851562 18.550781 3.722656 18.257812 C 3.59375 17.964844 3.53125 17.648438 3.53125 17.300781 C 3.53125 16.96875 3.59375 16.652344 3.722656 16.351562 C 3.851562 16.050781 4.023438 15.792969 4.242188 15.574219 C 4.457031 15.359375 4.714844 15.183594 5.007812 15.058594 C 5.300781 14.929688 5.613281 14.863281 5.945312 14.863281 C 6.277344 14.863281 6.585938 14.929688 6.878906 15.058594 C 7.171875 15.183594 7.425781 15.359375 7.636719 15.574219 C 7.847656 15.792969 8.015625 16.050781 8.144531 16.351562 C 8.269531 16.652344 8.335938 16.96875 8.335938 17.300781 Z M 8.335938 17.300781 "/>
  </g>
</svg>
