<svg xmlns="http://www.w3.org/2000/svg" viewBox="0 0 18 18">
  <path d="M18,9.05475382 C18,4.05432937 13.970187,0 9,0 C4.02981297,0 0,4.05432937 0,9.05475382 C0,13.573854 3.29067642,17.320034 7.59386865,18 L7.59386865,11.6727504 L5.30811419,11.6727504 L5.30811419,9.05475382 L7.59386865,9.05475382 L7.59386865,7.05942275 C7.59386865,4.79032258 8.93798341,3.5360781 10.9933905,3.5360781 C11.9780622,3.5360781 13.008297,3.71307301 13.008297,3.71307301 L13.008297,5.94142615 L11.8730136,5.94142615 C10.7554493,5.94142615 10.4061313,6.63921902 10.4061313,7.35611205 L10.4061313,9.05475382 L12.9019828,9.05475382 L12.5033047,11.6727504 L10.4061313,11.6727504 L10.4061313,18 C14.7093236,17.3213073 18,13.5751273 18,9.05475382 Z"/>
</svg>