<svg xmlns="http://www.w3.org/2000/svg" viewBox="0 0 32 23">
  <g stroke="none" stroke-width="1" fill="inherit" fill-rule="evenodd">
    <g transform="translate(-174.000000, -540.000000)" fill="inherit" fill-rule="nonzero">
      <g transform="translate(94.000000, 510.000000)">
        <g transform="translate(80.000000, 30.000000)">
          <g>
            <path d="M27.8195541,17.8861902 L30.9297319,20.973499 C31.396756,21.4370892 31.396756,22.1887173 30.9297319,22.6523074 C30.4627078,23.1158975 29.7055121,23.1158975 29.2384879,22.6523074 L26.1283101,19.5649986 C24.7308163,20.6039597 22.9952742,21.2193548 21.1149343,21.2193548 C16.4916313,21.2193548 12.7437037,17.4989855 12.7437037,12.9096774 C12.7437037,8.3203693 16.4916313,4.6 21.1149343,4.6 C25.7382373,4.6 29.4861649,8.3203693 29.4861649,12.9096774 C29.4861649,14.7761913 28.8662112,16.498972 27.8195541,17.8861902 Z M21.1149343,18.8451613 C24.4172936,18.8451613 27.0943847,16.1877546 27.0943847,12.9096774 C27.0943847,9.63160019 24.4172936,6.97419355 21.1149343,6.97419355 C17.812575,6.97419355 15.1354839,9.63160019 15.1354839,12.9096774 C15.1354839,16.1877546 17.812575,18.8451613 21.1149343,18.8451613 Z M1.08823893,2.3 C0.487221167,2.3 3.94430453e-31,1.78512746 3.94430453e-31,1.15 C3.94430453e-31,0.514872538 0.487221167,-8.8817842e-16 1.08823893,-8.8817842e-16 L17.4480574,-8.8817842e-16 C18.0490751,-8.8817842e-16 18.5362963,0.514872538 18.5362963,1.15 C18.5362963,1.78512746 18.0490751,2.3 17.4480574,2.3 L1.08823893,2.3 Z M0.623029378,8.05 C0.278939754,8.05 3.94430453e-31,7.53512746 3.94430453e-31,6.9 C3.94430453e-31,6.26487254 0.278939754,5.75 0.623029378,5.75 L9.98921467,5.75 C10.3333043,5.75 10.612244,6.26487254 10.612244,6.9 C10.612244,7.53512746 10.3333043,8.05 9.98921467,8.05 L0.623029378,8.05 Z M0.623029378,13.8 C0.278939754,13.8 3.94430453e-31,13.2851275 3.94430453e-31,12.65 C3.94430453e-31,12.0148725 0.278939754,11.5 0.623029378,11.5 L9.98921467,11.5 C10.3333043,11.5 10.612244,12.0148725 10.612244,12.65 C10.612244,13.2851275 10.3333043,13.8 9.98921467,13.8 L0.623029378,13.8 Z"></path>
          </g>
        </g>
      </g>
    </g>
  </g>
</svg>