<svg xmlns="http://www.w3.org/2000/svg" viewBox="0 0 17 24">
  <path d="M15.642 6.253c-.083-.309-.25-.637-.373-.925C13.789 1.774 10.559.5 7.949.5 4.456.5.609 2.842.095 7.67v.986c0 .041.014.411.035.596.288 2.301 2.103 4.746 3.459 7.047 1.459 2.465 2.972 4.89 4.472 7.314.925-1.582 1.846-3.184 2.75-4.725.246-.452.532-.904.778-1.336.165-.287.479-.575.622-.842 1.459-2.67 3.807-5.362 3.807-8.013V7.61c0-.288-.356-1.294-.376-1.356zm-7.63 4.951c-1.026 0-2.15-.513-2.704-1.931-.083-.226-.076-.678-.076-.72v-.637c0-1.807 1.534-2.629 2.87-2.629 1.643 0 2.914 1.315 2.914 2.959 0 1.643-1.36 2.958-3.003 2.958z" fill-rule="nonzero"/>
</svg>
