<svg xmlns="http://www.w3.org/2000/svg" viewBox="0 0 17 17">
  <g fill-rule="nonzero">
    <path d="M12.998 11.213c-.559-.551-1.256-.551-1.811 0-.424.42-.847.84-1.263 1.267-.114.117-.21.142-.349.064-.274-.15-.565-.27-.829-.434-1.227-.772-2.255-1.765-3.166-2.882-.452-.555-.854-1.149-1.135-1.818-.057-.135-.046-.224.064-.334.424-.41.836-.829 1.252-1.249.58-.583.58-1.266-.003-1.853-.331-.335-.662-.662-.993-.996-.341-.342-.68-.687-1.024-1.025-.559-.544-1.256-.544-1.811.004-.427.42-.836.85-1.27 1.263-.402.38-.605.846-.648 1.39-.067.886.15 1.723.456 2.537.626 1.686 1.58 3.184 2.736 4.557a16.93 16.93 0 0 0 5.606 4.387c.982.476 2 .843 3.106.903.761.043 1.423-.15 1.953-.743.363-.406.772-.776 1.156-1.164.57-.576.573-1.273.008-1.842-.676-.68-1.356-1.356-2.035-2.032zM12.535 7.727l1.374-.205c-.216-1.105-.811-2.106-1.716-2.902-.957-.838-2.167-1.366-3.5-1.53L8.5 4.3c1.031.128 1.97.535 2.71 1.184.7.613 1.158 1.389 1.325 2.243z"/>
    <path d="M14.262 2.853C12.739 1.29 10.812.304 8.686 0L8.5 1.36a8.356 8.356 0 0 1 4.818 2.465A8.722 8.722 0 0 1 15.681 8.5L17 8.269a10.14 10.14 0 0 0-2.738-5.416z"/>
  </g>
</svg>
