<svg xmlns="http://www.w3.org/2000/svg" viewBox="0 0 22 20">
  <path d="M21.503 14.994c-2.772-.444-4.035-3.175-4.17-3.485l-.016-.034c-.139-.275-.173-.498-.1-.663.145-.335.761-.525 1.156-.647.111-.035.216-.067.298-.1.8-.306 1.2-.699 1.191-1.166-.007-.371-.306-.712-.749-.865a1.386 1.386 0 0 0-.51-.096c-.123 0-.304.017-.478.096-.338.154-.638.237-.866.246a.85.85 0 0 1-.233-.038l.023-.36.004-.062c.094-1.456.211-3.269-.287-4.355C15.294.25 12.17 0 11.246 0l-.43.004c-.922 0-4.04.25-5.512 3.463-.499 1.089-.38 2.9-.286 4.356.01.144.018.283.026.42a.877.877 0 0 1-.277.039c-.265 0-.582-.084-.943-.248-.52-.238-1.473.08-1.602.739-.07.356.078.87 1.177 1.293.085.033.193.066.325.107.368.114.985.304 1.13.639.073.165.038.388-.114.69-.054.124-1.36 3.019-4.243 3.481a.58.58 0 0 0-.496.6.722.722 0 0 0 .06.247c.242.552 1.165.936 2.902 1.204.039.096.083.293.108.408.037.163.075.331.128.506.053.177.21.473.664.473.153 0 .331-.034.524-.07a5.724 5.724 0 0 1 1.13-.126c.26 0 .533.023.808.067.52.084.975.398 1.504.762.778.536 1.486.946 2.901.946.038 0 .075-.001.111-.004.053.003.105.004.159.004 1.24 0 2.33-.319 3.244-.947.504-.348.98-.676 1.5-.76.277-.045.55-.068.81-.068.452 0 .813.057 1.134.118.218.042.388.062.545.062.317 0 .55-.17.639-.466a7.28 7.28 0 0 0 .127-.502c.02-.09.068-.302.108-.405 1.712-.265 2.587-.633 2.829-1.184a.712.712 0 0 0 .063-.252.581.581 0 0 0-.496-.602z" fill-rule="nonzero"/>
</svg>