<svg xmlns="http://www.w3.org/2000/svg" viewBox="0 0 18 15">
  <path d="M18 1.73a7.374 7.374 0 0 1-2.12.581A3.708 3.708 0 0 0 17.503.27a7.444 7.444 0 0 1-2.347.896 3.693 3.693 0 0 0-6.292 3.367A10.483 10.483 0 0 1 1.254.675a3.664 3.664 0 0 0-.5 1.856 3.69 3.69 0 0 0 1.643 3.073A3.693 3.693 0 0 1 .724 5.14v.046a3.696 3.696 0 0 0 2.962 3.621 3.74 3.74 0 0 1-.973.13c-.238 0-.47-.024-.695-.07a3.694 3.694 0 0 0 3.448 2.565A7.408 7.408 0 0 1 .881 13.01c-.298 0-.592-.018-.881-.05a10.438 10.438 0 0 0 5.66 1.661c6.793 0 10.505-5.626 10.505-10.505l-.012-.478A7.374 7.374 0 0 0 18 1.73z"/>
</svg>