<svg xmlns="http://www.w3.org/2000/svg" viewBox="0 0 15 14">
  <path d="M7.417 0c3.876 0 7 3.124 7 7s-3.124 7-7 7-7-3.124-7-7 3.124-7 7-7zm.875 12.544c.875 0 2.625-1.463 2.625-3.5 0-1.135-.91-2.044-2.044-2.044H7.71c-.875 0-1.463-.438-1.463-1.019 0-.41.328-.731.731-.731.581 0 .602.581 1.019.581.328 0 .588-.26.588-.581 0-.567-.28-.861-.554-1.135.164-.307.533-1.114.554-2.283a.295.295 0 0 0-.246-.294 6.012 6.012 0 0 0-.923-.082c-2.461.082-4.081 1.251-4.081 3.213 0 1.75 1.456 3.206 3.206 3.206h.048a1.907 1.907 0 0 0-.048.438c0 .888.615 1.654 1.456 1.845v2.092c0 .164.13.294.294.294z" fill-rule="evenodd"/>
</svg>