<svg xmlns="http://www.w3.org/2000/svg" viewBox="0 0 21 15">
  <path d="M19.945 2.112c-.538-.956-1.12-1.131-2.307-1.198C16.452.834 13.47.8 10.888.8c-2.587 0-5.57.033-6.754.113-1.184.068-1.768.242-2.31 1.199-.553.954-.838 2.597-.838 5.49v.01c0 2.881.285 4.537.838 5.481.542.956 1.125 1.129 2.309 1.21 1.186.069 4.168.11 6.756.11 2.582 0 5.563-.041 6.75-.11 1.187-.08 1.77-.253 2.307-1.208.558-.945.84-2.6.84-5.481v-.007-.003c0-2.895-.282-4.538-.841-5.492zM8.41 11.319V3.894L14.6 7.606 8.41 11.32z"/>
</svg>